<svg width="15" height="15" viewBox="0 0 15 15" fill="none" xmlns="http://www.w3.org/2000/svg">
<path d="M14.6515 5.87124C14.5553 5.57379 14.2915 5.36252 13.9793 5.33439L9.73947 4.94941L8.06292 1.02526C7.9393 0.737673 7.65776 0.551514 7.34495 0.551514C7.03215 0.551514 6.75061 0.737673 6.62699 1.02593L4.95043 4.94941L0.709893 5.33439C0.398319 5.3632 0.135163 5.57379 0.0384405 5.87124C-0.0582818 6.16869 0.0310434 6.49495 0.266741 6.70061L3.47158 9.51127L2.52655 13.6741C2.45739 13.9802 2.5762 14.2966 2.83016 14.4802C2.96667 14.5788 3.12638 14.629 3.28744 14.629C3.4263 14.629 3.56404 14.5916 3.68766 14.5176L7.34495 12.3318L11.0009 14.5176C11.2684 14.6786 11.6057 14.6639 11.8591 14.4802C12.1131 14.2961 12.2318 13.9795 12.1627 13.6741L11.2177 9.51127L14.4225 6.70117C14.6582 6.49495 14.7482 6.16925 14.6515 5.87124Z" fill="#FFC107"/>
</svg>
